<svg width="26" height="26" viewBox="0 0 26 26" fill="none" xmlns="http://www.w3.org/2000/svg">
<mask id="mask0_4426_61" style="mask-type:alpha" maskUnits="userSpaceOnUse" x="0" y="0" width="26" height="26">
<rect width="26" height="26" fill="#0060B3"/>
</mask>
<g mask="url(#mask0_4426_61)">
<path d="M15.7484 12.8727L3.12072 12.8727L8.75358 6.00202C19.1162 9.17463 22.555 2.74853 22.6191 0.851686V0.747956C22.6203 0.780811 22.6203 0.815421 22.6191 0.851686L22.6191 6.00202C22.6191 9.7966 19.543 12.8727 15.7484 12.8727Z" fill="#0060B3"/>
<path d="M9.99233 14.3062L22.62 14.3062L16.9871 21.1769C6.62455 18.0043 3.18572 24.4304 3.12163 26.3273V26.431C3.12041 26.3981 3.1204 26.3635 3.12163 26.3273L3.12163 21.1769C3.12163 17.3823 6.19774 14.3062 9.99233 14.3062Z" fill="#0060B3"/>
</g>
</svg>
